<?xml version="1.0" encoding="UTF-8"?> <svg xmlns="http://www.w3.org/2000/svg" xmlns:xlink="http://www.w3.org/1999/xlink" version="1.1" id="Calque_1" x="0px" y="0px" width="120px" height="73.322px" viewBox="0 0 120 73.322" xml:space="preserve"> <g> <path fill="#DA248B" d="M3.288,64.416c2.678,0,4.609,1.956,4.609,4.36c0,2.404-1.931,4.36-4.609,4.36H0.361l-0.063-0.063v-8.595 l0.063-0.063H3.288z M2.042,71.392h1.246c1.62,0,2.741-1.059,2.741-2.616c0-1.557-1.121-2.615-2.741-2.615H2.042V71.392z"></path> <path fill="#DA248B" d="M18.048,64.416l0.062,0.063v1.62l-0.062,0.063h-4.173v1.557h3.052l0.063,0.062v1.62l-0.063,0.062h-3.052 v1.931h4.297l0.062,0.063v1.619l-0.062,0.063h-5.979l-0.062-0.063v-8.595l0.062-0.063H18.048z M17.687,61.862l0.05,0.063 l-1.994,1.557l-0.125,0.062h-1.744l-0.062-0.062l1.682-1.557l0.124-0.063H17.687z"></path> <path fill="#DA248B" d="M24.712,64.416c1.62,0,2.927,0.872,2.927,2.367c0,0.747-0.374,1.307-0.872,1.557 c0.748,0.312,1.308,1.184,1.308,2.118c0,1.744-1.246,2.678-2.865,2.678h-2.803l-0.063-0.063v-8.595l0.063-0.063H24.712z M24.089,67.779h0.623c0.685,0,0.997-0.312,0.997-0.81c0-0.498-0.312-0.809-0.997-0.809h-0.623V67.779z M24.089,71.392h0.996 c0.624,0,1.059-0.25,1.059-0.935s-0.436-0.934-1.059-0.934h-0.996V71.392z"></path> <path fill="#DA248B" d="M41.154,68.776c0,2.553-2.056,4.546-4.609,4.546c-2.554,0-4.609-1.993-4.609-4.546 c0-2.554,2.055-4.547,4.609-4.547C39.099,64.229,41.154,66.222,41.154,68.776 M33.867,68.776c0,1.557,1.183,2.74,2.678,2.74 c1.495,0,2.678-1.184,2.678-2.74c0-1.557-1.183-2.741-2.678-2.741C35.05,66.035,33.867,67.219,33.867,68.776"></path> <path fill="#DA248B" d="M47.07,64.416l0.062,0.063v4.546c0,1.682,0.935,2.492,2.118,2.492c1.183,0,2.117-0.81,2.117-2.492v-4.546 l0.063-0.063h1.62l0.062,0.063v4.796c0,2.554-1.744,4.048-3.861,4.048c-2.118,0-3.862-1.495-3.862-4.048v-4.796l0.062-0.063H47.07z "></path> <path fill="#DA248B" d="M64.883,67.032c-0.81-0.685-1.744-0.997-2.928-0.997c-1.495,0-2.678,1.246-2.678,2.74 c0,1.495,1.183,2.741,2.678,2.741c1.184,0,2.118-0.311,2.928-0.997l0.062,0.062v1.931c-0.81,0.585-1.806,0.81-2.99,0.81 c-2.541,0-4.608-2.043-4.608-4.547c0-2.503,2.067-4.546,4.608-4.546c1.184,0,2.18,0.224,2.99,0.81v1.931L64.883,67.032z"></path> <polygon fill="#DA248B" points="71.11,64.416 71.172,64.478 71.172,67.717 75.159,67.717 75.159,64.478 75.221,64.416 76.84,64.416 76.903,64.478 76.903,73.073 76.84,73.135 75.221,73.135 75.159,73.073 75.159,69.46 71.172,69.46 71.172,73.073 71.11,73.135 69.491,73.135 69.429,73.073 69.429,64.478 69.491,64.416 "></polygon> <polygon fill="#DA248B" points="87.303,64.416 87.365,64.478 87.365,66.098 87.303,66.16 83.13,66.16 83.13,67.717 86.182,67.717 86.244,67.779 86.244,69.398 86.182,69.46 83.13,69.46 83.13,71.392 87.428,71.392 87.49,71.454 87.49,73.073 87.428,73.135 81.449,73.135 81.387,73.073 81.387,64.478 81.449,64.416 "></polygon> <path fill="#DA248B" d="M93.282,64.416l0.062,0.063v4.546c0,1.682,0.934,2.492,2.118,2.492s2.118-0.81,2.118-2.492v-4.546 l0.062-0.063h1.62l0.062,0.063v4.796c0,2.554-1.744,4.048-3.861,4.048S91.6,71.828,91.6,69.274v-4.796l0.063-0.063H93.282z"></path> <path fill="#DA248B" d="M106.174,64.416c1.868,0,2.989,1.184,2.989,2.616c0,0.997-0.499,1.682-1.246,2.055l2.989,3.987 l-0.062,0.062h-1.993l-0.063-0.062l-2.615-3.426h-0.623v3.426l-0.062,0.062h-1.62l-0.062-0.062v-8.596l0.062-0.062H106.174z M105.551,67.904h0.623c0.623,0,1.059-0.249,1.059-0.872s-0.436-0.872-1.059-0.872h-0.623V67.904z"></path> <path fill="#DA248B" d="M117.907,66.596c-0.274-0.374-0.647-0.561-0.959-0.561c-0.436,0-0.623,0.25-0.623,0.623 c0,0.997,3.674,0.997,3.674,3.862c0,1.495-1.245,2.803-2.927,2.803c-1.307,0-2.491-0.686-2.927-1.931l1.433-0.959h0.125 c0.311,0.835,0.871,1.083,1.369,1.083c0.624,0,1.059-0.373,1.059-0.996c0-1.495-3.674-1.433-3.674-3.862 c0-1.432,1.108-2.429,2.491-2.429c1.059,0,1.744,0.436,2.43,1.371l-1.346,0.997H117.907z"></path> <path fill="#DA248B" d="M106.363,52.583c1.664,0,2.862,1.199,2.862,2.708c0,1.508-1.199,2.707-2.862,2.707h-1.5l-0.039-0.039 v-5.337l0.039-0.039H106.363z M105.28,57.55h1.083c1.338,0,2.344-0.998,2.344-2.258c0-1.262-1.005-2.259-2.344-2.259h-1.083V57.55z "></path> <polygon fill="#DA248B" points="113.936,52.583 113.975,52.622 113.975,52.994 113.936,53.032 111.422,53.032 111.422,54.796 113.317,54.796 113.356,54.835 113.356,55.206 113.317,55.244 111.422,55.244 111.422,57.55 114.168,57.55 114.207,57.588 114.207,57.96 114.168,57.999 111.004,57.999 110.966,57.96 110.966,52.622 111.004,52.583 "></polygon> <path fill="#DA248B" d="M118.067,53.504c-0.248-0.348-0.526-0.564-0.959-0.564c-0.464,0-0.835,0.364-0.835,0.844 c0,1.028,2.576,1.013,2.576,2.668c0,0.92-0.742,1.663-1.663,1.663c-0.774,0-1.354-0.425-1.625-1.121l0.325-0.24h0.078 c0.232,0.581,0.681,0.89,1.223,0.89c0.649,0,1.145-0.519,1.145-1.191c-0.001-1.238-2.569-1.207-2.569-2.668 c0-0.728,0.596-1.315,1.346-1.315c0.62,0,1.083,0.348,1.354,0.812l-0.317,0.224H118.067z"></path> <polygon fill="#DA248B" points="0.46,52.377 0.493,52.411 0.493,57.747 3.22,57.747 3.253,57.789 3.253,58.199 3.22,58.232 0.034,58.232 0,58.199 0,52.411 0.034,52.377 "></polygon> <path fill="#DA248B" d="M7.235,52.377l0.042,0.042l2.325,5.771l-0.042,0.042H9.118L9.076,58.19L8.39,56.5H5.638L4.96,58.19 l-0.042,0.042H4.467L4.425,58.19l2.326-5.771l0.042-0.042H7.235z M5.838,56.016h2.359l-1.179-2.995L5.838,56.016z"></path> <path fill="#DA248B" d="M23.366,50.6c-0.863-0.708-1.933-1.095-3.028-1.095c-2.139,0-3.905,1.752-3.905,3.917 c0,2.165,1.766,3.917,3.905,3.917c1.095,0,2.165-0.386,3.028-1.095l0.065,0.064v0.851c-0.838,0.605-1.869,0.966-3.093,0.966 c-2.642,0-4.768-2.126-4.768-4.704c0-2.577,2.126-4.703,4.768-4.703c1.224,0,2.255,0.361,3.093,0.966v0.85L23.366,50.6z"></path> <path fill="#DA248B" d="M35.298,53.422c0,2.59-2.139,4.703-4.768,4.703c-2.628,0-4.767-2.113-4.767-4.703 c0-2.59,2.139-4.703,4.767-4.703C33.159,48.719,35.298,50.832,35.298,53.422 M26.626,53.422c0,2.164,1.766,3.917,3.904,3.917 c2.152,0,3.917-1.753,3.917-3.917c0-2.165-1.765-3.917-3.917-3.917C28.392,49.505,26.626,51.258,26.626,53.422"></path> <polygon fill="#DA248B" points="38.932,48.912 39.061,48.977 42.527,53.281 45.98,48.977 46.109,48.912 46.702,48.912 46.767,48.977 46.767,57.868 46.702,57.932 46.071,57.932 46.006,57.868 46.006,50.033 42.592,54.312 42.463,54.312 39.035,50.033 39.035,57.868 38.971,57.932 38.34,57.932 38.275,57.868 38.275,48.977 38.34,48.912 "></polygon> <path fill="#DA248B" d="M52.552,48.912c2.01,0,3.157,1.095,3.157,2.642s-1.147,2.628-3.157,2.628h-1.675v3.686l-0.065,0.064h-0.631 l-0.064-0.064v-8.891l0.052-0.064H52.552z M50.877,53.435h1.675c1.444,0,2.307-0.708,2.307-1.881s-0.863-1.894-2.307-1.894h-1.675 V53.435z"></path> <path fill="#DA248B" d="M60.439,48.912l0.064,0.064l3.582,8.891l-0.064,0.064h-0.682l-0.064-0.064l-1.057-2.603h-4.24l-1.043,2.603 l-0.064,0.064h-0.696l-0.064-0.064l3.582-8.891l0.064-0.064H60.439z M58.287,54.517h3.634l-1.817-4.613L58.287,54.517z"></path> <path fill="#DA248B" d="M74.201,50.471c-0.864-0.747-2.062-0.966-3.157-0.966c-2.294,0-4.033,1.753-4.033,3.917 c0,2.203,1.804,3.917,4.098,3.917c0.85,0,1.829-0.245,2.538-0.696V53.86h-2.281l-0.064-0.064v-0.619l0.064-0.064h2.964l0.064,0.064 v3.917c-0.966,0.709-2.126,1.031-3.285,1.031c-2.771,0-4.961-2.062-4.961-4.703c0-2.577,2.126-4.703,4.896-4.703 c1.224,0,2.384,0.206,3.222,0.837v0.851L74.201,50.471z"></path> <polygon fill="#DA248B" points="78.375,48.912 78.505,48.977 84.329,56.747 84.329,48.977 84.394,48.912 85.024,48.912 85.089,48.977 85.089,57.868 85.024,57.932 84.354,57.932 84.226,57.868 78.389,50.098 78.389,57.868 78.324,57.932 77.693,57.932 77.628,57.868 77.628,48.977 77.693,48.912 "></polygon> <polygon fill="#DA248B" points="89.135,48.912 89.2,48.977 89.2,57.868 89.135,57.932 88.504,57.932 88.44,57.868 88.44,48.977 88.504,48.912 "></polygon> <polygon fill="#DA248B" points="97.498,48.912 97.563,48.977 97.563,49.596 97.498,49.66 93.311,49.66 93.311,52.597 96.467,52.597 96.531,52.662 96.531,53.28 96.467,53.345 93.311,53.345 93.311,57.185 97.885,57.185 97.949,57.249 97.949,57.868 97.885,57.932 92.615,57.932 92.55,57.868 92.55,48.977 92.615,48.912 "></polygon> <path fill="#DA248B" d="M76.272,0L42.78,0.094c-0.394,0.001-0.772,0.154-1.056,0.428l-8.282,8.01 c-0.583,0.563-0.623,1.482-0.092,2.094l25.461,29.367c0.406,0.467,1.132,0.466,1.536-0.003l25.366-29.462 C86.24,9.917,86.198,9,85.618,8.438l-8.282-8.01C77.05,0.152,76.669-0.001,76.272,0 M59.526,38.406L34.569,9.621l8.199-7.93 l33.424-0.093l8.199,7.929L59.526,38.406z"></path> <path fill="#DA248B" d="M65.293,25.898l-11.532,0c-0.766-0.006-1.393,0.611-1.399,1.376c-0.006,0.765,0.612,1.392,1.376,1.397 h11.533c0.765,0.006,1.392-0.611,1.397-1.376C66.676,26.531,66.059,25.904,65.293,25.898"></path> <path fill="#DA248B" d="M55.973,11.996c0,0.317-0.257,0.575-0.575,0.575h-9.425c-1.178,0-2.424-0.442-3.42-1.213 c-1-0.775-1.632-1.781-1.734-2.761l-0.066-0.634h0.639h14.007c0.318,0,0.575,0.257,0.575,0.575c0,0.317-0.257,0.575-0.575,0.575 H42.143c0.529,1.16,2.096,2.309,3.83,2.309h9.425C55.715,11.421,55.973,11.679,55.973,11.996z"></path> <path fill="#DA248B" d="M55.947,15.455c0,0.317-0.257,0.575-0.575,0.575h-4.396c-1.177,0-2.423-0.442-3.419-1.214 c-1-0.774-1.633-1.781-1.734-2.76l-0.066-0.634h0.637h9.004c0.317,0,0.575,0.257,0.575,0.575c0,0.317-0.258,0.574-0.575,0.574 h-8.251c0.528,1.16,2.096,2.309,3.829,2.309h4.396C55.69,14.879,55.947,15.137,55.947,15.455"></path> <path fill="#DA248B" d="M63.036,11.996c0,0.317,0.257,0.575,0.575,0.575h9.426c1.178,0,2.423-0.442,3.419-1.213 c1-0.775,1.632-1.781,1.734-2.761l0.066-0.634h-0.637H63.611c-0.317,0-0.575,0.257-0.575,0.575c0,0.317,0.257,0.575,0.575,0.575 h13.255c-0.529,1.16-2.096,2.309-3.83,2.309h-9.426C63.293,11.421,63.036,11.679,63.036,11.996"></path> <path fill="#DA248B" d="M63.046,15.455c0,0.317,0.258,0.575,0.575,0.575h4.411c1.178,0,2.424-0.442,3.419-1.214 c1-0.774,1.633-1.781,1.734-2.76l0.066-0.634h-0.638H63.61c-0.317,0-0.574,0.257-0.574,0.575c0,0.317,0.257,0.574,0.574,0.574 h8.251c-0.528,1.16-2.096,2.309-3.829,2.309h-4.411C63.304,14.879,63.046,15.137,63.046,15.455"></path> <path fill="#DA248B" d="M65.052,23.307c0.023-3.023-2.417-5.501-5.439-5.525c-3.024-0.023-5.502,2.417-5.526,5.44l-0.002,1.631 l1.132,0.009v-0.006h9.399l0-0.003l0.414,0.003L65.052,23.307z"></path> <path fill="#DA248B" d="M59.527,16.75c0.457,0.003,0.904,0.053,1.335,0.142l0.053-12.404c0.006-0.765-0.611-1.392-1.377-1.398 c-0.765-0.006-1.392,0.611-1.397,1.376l-0.053,12.451C58.552,16.812,59.032,16.75,59.527,16.75"></path> </g> </svg> 