<?xml version="1.0" encoding="UTF-8"?> <svg xmlns="http://www.w3.org/2000/svg" version="1.1" viewBox="0 0 802 413.7"><defs><style> .cls-1 { isolation: isolate; } .cls-2 { fill-rule: evenodd; } </style></defs><g><g id="Layer_1"><path class="cls-2" d="M456.5,5.6c7.6-2.9,6.9,16.8.5,17.3-7.5.5-4.6-15.7-.5-17.3Z"></path><path class="cls-2" d="M501.7,51.8c7.3-1.6,7.2-10.8,11.7-15.2,3.4,5.3-1.6,13.3-4.6,20.3-2.4,5.6-4.7,12.8-9.7,12.7-11.2-.2-5.9-26.8-4.6-35.1-8.9,9.5-7.7,29.2-15.2,40.2-5.3-1.7-7.3-6.8-9.6-11.7-4.3,6.6-5.1,21.3-13.7,21.3s-8.1-9.1-11.2-14.7c-3.6,6.2-3.4,20.4-11.2,20.8-11.2.7-6.3-25.2-8.1-33-2.4,7-4,13.8-5.6,23.4-1,6.2-1.5,21.4-7.6,21.3-8.7,0-4.1-22.9-6.6-31-4.7,3.3-5,12.4-6.1,19.3-1.2,7.6-.4,15.7-3,21.9-7-.3-9.5-5.1-12.2-9.7-4.1,5.8-6.2,20.9-14.2,19.8-6.3-.9-5.1-12.3-6.6-19.3-3.8,8.7-5,20.1-11.7,25.9-2,0-3.2-.9-4.6-1.5-2.8,5.1-5.6,12.1-11.7,11.7-7.5-.6-7.9-12.4-10.7-19.3-4.5,8.7-6.1,20.3-12.7,26.9-5.4.3-7.2-3-10.2-5.1-5.9,6-6,25.1-17.3,23.4-10.2-1.5-5.1-21.3-4.6-32-3.1,3.1-5.7,10-8.1,18.3-1.7,6-2.8,18.4-7.1,19.8-6.2,2-10.6-9.8-13.2-14.7-3.3,9.5-8.7,22.6-15.8,32-6.6,8.7-22.5,21-29,5.1-9.9,10.6-18.6,20.8-29.5,30.5-11.1,9.9-25.4,22.3-46.8,21.9-19.2-.4-29.8-14.7-29-36.1,1.1-28,18.4-52.4,34.1-71.7,8.4-10.4,16.5-19.1,25.9-26.9,8.7-7.2,20.4-16.7,33-19.3,19.3-4,22.9,17.6,16.8,32.5-5.9-1.4-3-8.4-3.6-11.7-.8-4.7-5.4-11.2-11.2-11.2s-19.2,12.9-24.9,18.3c-14.6,14-27.3,30.9-37.1,49.3-6.2,11.7-12.4,23.8-11.2,39.1.9,11.5,6.6,20,18.3,20.3,14.7.4,27-8.9,36.1-15.8,10.5-8,18.2-15.8,26.9-24.9-1-5.3-2-13.3,0-20.3,3.6-12.8,16.7-27.9,26.9-32.5,3.2-1.5,7.4-1.7,10.7-1.5,5.2,2.3,4.6,10.3,9.7,12.7,1.4-9.5,2.6-21.7,13.2-20.3,3.2,9.2-7.4,18.1-3,28.5,4.6-6,6-15,9.7-23.4,1.4-3.1,2.8-7.3,5.1-11.2,1.3-2.2,5.3-8.5,7.6-8.6,3.3-.2,6.8,4.8,7.1,8.1.8,8.7-10.8,22.8-2.5,29.5,4.6-2,6.5-6.7,8.6-11.2-6.5-9.4-2.4-20.8,4.1-31,4.7-7.5,10.3-17.4,20.3-13.7,2.4-14,.6-32.2,7.1-42.2,11,1.6,5.5,19.5,3.6,32.5-1.4,9.7-2.7,18.8-2,26.9.5,5.8,3.6,19,10.2,13.2-.7-5.4-5.9-7.9-4.6-17.8.8-6.3,5.8-16.1,10.2-22.9,5.2-8.1,15.9-22.7,22.9-12.2,1.7,1.7-2.6,3.6-2.5,4.6,0,1.8,4.3,2.5,5.1,6.6,1.7,8.4-7.7,22.3,1.5,23.4,4.4.5,5.3-5.4,8.1-7.6-.5-11.9-4.7-30.6,8.6-33,4.7,8.5-4.6,20.9,0,29.5,3.8-2,3.2-7.3,4.1-11.7,1.6-8.2,3-16.6,6.1-25.4,1.2-3.3,3.8-8.6,7.1-8.6,10.5,0,3.7,28.3,5.1,36.1,4.9-15.1,7.2-32.7,13.2-46.8,17.1,2-1.5,27.9,10.2,34,13-8,3.7-38.3,20.3-42.7,6.9,7.4-3.5,22.6-4.6,30.5-.6,4.5.6,9.9,4.6,10.2,6.3.4,8-9.6,11.2-13.7,1-10.9.2-30.6,13.2-29.5,2.7,9.5-7.2,19.6-3.6,30,3.4-2.3,3.5-7,4.6-10.7,3.3-11.1,9-26.4,16.3-34,16.1,6.9-3.9,27.4,3.5,40.1h0ZM345.2,108.3c-.4,3.7.2,8.3,4.1,9.7,8.5-8.7,11.4-23.2,14.2-37.6.5,0,.4-.7-.5-.5-4.5,7.9-16.6,17.3-17.8,28.4h0ZM305,124c-.5,3,.4,11,3.6,11.2,2.7.2,5.8-7.8,7.6-11.7,4-8.5,6.9-11.8,6.6-21.3-.1-.4-.4-.6-1-.5-3.8,6.6-15.2,13.3-16.8,22.3h0ZM214.6,187.5c8.7,7.5,16.9-7.5,20.8-14.7,4.5-8.2,8.7-17.6,6.1-25.4-14.3,8-26.2,18.5-26.9,40.1h0Z"></path><path class="cls-2" d="M647.6,80.3c1.5,23.2,2,47.4,3.6,70.6-5.8-21.5-8.2-46.3-12.7-69.1-13.1,12-25.9,28.7-39.6,41.7,9.8-15.1,20.5-29.3,30-44.7-135.8,16.1-245.9,61.1-340.6,118.9-94.8,57.8-174.4,131.6-244.5,214.5-14,1.1-29.6.6-43.7,1.5-.8-2.6,3.2-5.2,5.6-7.6,36.7-37.5,74-76,114.3-110.8,86-74,180.1-139.1,296.8-184,61.2-23.5,128-40.6,207.4-43.2-24.1-19.1-53.6-37.2-78.8-56.9,30.3,17.8,60.5,35.7,91,53.4,0-20-1-43.4-1.5-64.5,5.3,19.5,7,42.4,11.2,63,10.2-7.8,20.9-19.4,31-29-5.7,11.2-15.8,22.5-22.9,34,20.3,1.2,41.1,1.9,56.9,7.6-17.2-1.2-36.6-.4-53.4.5,8.3,9,20.6,18.3,30.5,27.4-12.9-6.3-27-15.9-40.6-23.3h0Z"></path><g class="cls-1"><path d="M313,256.8v60.4h-12.5l-20.2-34.3v34.3h-12.8v-60.4h12.5l20.2,34.4v-34.4h12.8Z"></path><path d="M359.5,281.1v11.4h-22.3v13.3h26.1v11.4h-38.9v-60.4h38.9v11.4h-26.1v12.8h22.3Z"></path><path d="M395.9,317.2h-12.9v-49h-15v-11.4h42.8v11.4h-15v49Z"></path><path d="M441.1,317.2h-12.9v-49h-15v-11.4h42.8v11.4h-15v49Z"></path><path d="M481.7,256c6.7,0,12.1,1.9,16.1,5.7s6,10,6,18.5v13.4c0,8.5-2,14.7-6.1,18.5-4,3.8-9.4,5.7-16.2,5.7-14.5,0-21.8-8.2-21.8-24.2v-13.4c0-16.1,7.5-24.2,22.2-24.2ZM490.9,293.5v-12.7c0-4.8-.8-8.2-2.3-10.4-1.5-2-3.7-3-6.9-3s-5.6.9-7.1,2.9c-1.4,2-2.2,5.5-2.2,10.5v12.7c0,4.6.8,8,2.2,9.9,1.4,1.9,3.7,2.8,7.1,2.8s5.4-.9,6.9-3c1.5-2,2.3-5.3,2.3-9.8Z"></path><path d="M523.5,317.2v-24.7l-17.6-35.6h14.1l9.9,22.5,9.9-22.5h14.2l-17.6,35.5v24.8h-12.8Z"></path><path d="M601.5,317.2h-13.6l-3.6-11.4h-19l-3.6,11.4h-13.5l21.4-60.4h10.3l21.5,60.4ZM580.7,294.8l-6-18.7-5.9,18.7h11.8Z"></path><path d="M627.2,256c6.6,0,11.9,1.8,15.9,5.3,3.9,3.6,6,8.4,6,14.6v1.4h-12.8v-1.4c0-2.5-.8-4.4-2.4-6-1.5-1.6-3.7-2.4-6.7-2.4s-5.6,1-7.1,3c-1.5,2-2.3,5.5-2.3,10.4v12.7c0,4.6.8,7.9,2.4,9.9,1.6,2,4,2.9,7.4,2.9s5.4-.8,6.8-2.4c1.4-1.5,2.1-4,2.1-7.4v-2h-10.4v-10.9h23v10.9c0,15.5-7.4,23.4-22,23.4s-22.2-8.2-22.2-24.2v-13.4c0-16.1,7.6-24.2,22.4-24.2Z"></path><path d="M693.8,281.1v11.4h-22.3v13.3h26.1v11.4h-38.9v-60.4h38.9v11.4h-26.1v12.8h22.3Z"></path></g></g></g></svg> 